<mxfile host="app.diagrams.net" modified="2024-04-20T21:01:06.699Z" agent="Mozilla/5.0 (Windows NT 10.0; WOW64) AppleWebKit/537.36 (KHTML, like Gecko) Chrome/102.0.0.0 Safari/537.36" etag="rjUE8Xz_THXpSVklVzgl" version="24.2.5" type="github">
  <diagram name="第 1 页" id="x6Ix3C7SkP4XbgLbU882">
    <mxGraphModel dx="2048" dy="775" grid="0" gridSize="10" guides="1" tooltips="1" connect="1" arrows="1" fold="1" page="1" pageScale="1" pageWidth="827" pageHeight="1169" math="0" shadow="0">
      <root>
        <mxCell id="0" />
        <mxCell id="1" parent="0" />
        <mxCell id="P6rqCEaD585yuIfaM_o3-9" value="游客" style="rounded=0;whiteSpace=wrap;html=1;fontSize=14;" vertex="1" parent="1">
          <mxGeometry x="550" y="1110" width="100" height="40" as="geometry" />
        </mxCell>
        <mxCell id="P6rqCEaD585yuIfaM_o3-10" value="" style="endArrow=none;html=1;rounded=0;exitX=1;exitY=0.5;exitDx=0;exitDy=0;fontSize=14;" edge="1" parent="1" source="P6rqCEaD585yuIfaM_o3-9">
          <mxGeometry width="50" height="50" relative="1" as="geometry">
            <mxPoint x="600" y="1140" as="sourcePoint" />
            <mxPoint x="720" y="1130" as="targetPoint" />
          </mxGeometry>
        </mxCell>
        <mxCell id="P6rqCEaD585yuIfaM_o3-11" value="设置" style="rhombus;whiteSpace=wrap;html=1;fontSize=14;" vertex="1" parent="1">
          <mxGeometry x="720" y="1107.5" width="100" height="45" as="geometry" />
        </mxCell>
        <mxCell id="P6rqCEaD585yuIfaM_o3-12" value="" style="endArrow=none;html=1;rounded=0;exitX=0.5;exitY=0;exitDx=0;exitDy=0;fontSize=14;" edge="1" parent="1" source="P6rqCEaD585yuIfaM_o3-11">
          <mxGeometry width="50" height="50" relative="1" as="geometry">
            <mxPoint x="600" y="1140" as="sourcePoint" />
            <mxPoint x="770" y="1050" as="targetPoint" />
          </mxGeometry>
        </mxCell>
        <mxCell id="P6rqCEaD585yuIfaM_o3-15" value="" style="endArrow=none;html=1;rounded=0;exitX=0.493;exitY=-0.104;exitDx=0;exitDy=0;exitPerimeter=0;fontSize=14;" edge="1" parent="1">
          <mxGeometry width="50" height="50" relative="1" as="geometry">
            <mxPoint x="769.5799999999999" y="919.9999999999999" as="sourcePoint" />
            <mxPoint x="769.93" y="860" as="targetPoint" />
          </mxGeometry>
        </mxCell>
        <mxCell id="P6rqCEaD585yuIfaM_o3-17" value="预约" style="rhombus;whiteSpace=wrap;html=1;fontSize=14;" vertex="1" parent="1">
          <mxGeometry x="720" y="910" width="100" height="45" as="geometry" />
        </mxCell>
        <mxCell id="P6rqCEaD585yuIfaM_o3-13" value="旅游路线" style="rounded=0;whiteSpace=wrap;html=1;fontSize=14;" vertex="1" parent="1">
          <mxGeometry x="720" y="1010" width="100" height="40" as="geometry" />
        </mxCell>
        <mxCell id="P6rqCEaD585yuIfaM_o3-19" value="" style="endArrow=none;html=1;rounded=0;fontSize=14;" edge="1" parent="1">
          <mxGeometry width="50" height="50" relative="1" as="geometry">
            <mxPoint x="770" y="1010" as="sourcePoint" />
            <mxPoint x="769.93" y="955" as="targetPoint" />
          </mxGeometry>
        </mxCell>
        <mxCell id="P6rqCEaD585yuIfaM_o3-18" value="景点" style="rounded=0;whiteSpace=wrap;html=1;fontSize=14;" vertex="1" parent="1">
          <mxGeometry x="720" y="820" width="100" height="40" as="geometry" />
        </mxCell>
        <mxCell id="P6rqCEaD585yuIfaM_o3-20" value="" style="endArrow=none;html=1;rounded=0;fontSize=14;" edge="1" parent="1">
          <mxGeometry width="50" height="50" relative="1" as="geometry">
            <mxPoint x="650" y="840" as="sourcePoint" />
            <mxPoint x="720" y="840" as="targetPoint" />
          </mxGeometry>
        </mxCell>
        <mxCell id="P6rqCEaD585yuIfaM_o3-21" value="决定" style="rhombus;whiteSpace=wrap;html=1;fontSize=14;" vertex="1" parent="1">
          <mxGeometry x="550" y="817.5" width="100" height="45" as="geometry" />
        </mxCell>
        <mxCell id="P6rqCEaD585yuIfaM_o3-22" value="酒店" style="rounded=0;whiteSpace=wrap;html=1;fontSize=14;" vertex="1" parent="1">
          <mxGeometry x="380" y="820" width="100" height="40" as="geometry" />
        </mxCell>
        <mxCell id="P6rqCEaD585yuIfaM_o3-23" value="" style="endArrow=none;html=1;rounded=0;entryX=0;entryY=0.5;entryDx=0;entryDy=0;fontSize=14;" edge="1" parent="1" target="P6rqCEaD585yuIfaM_o3-21">
          <mxGeometry width="50" height="50" relative="1" as="geometry">
            <mxPoint x="480" y="840" as="sourcePoint" />
            <mxPoint x="540" y="839.58" as="targetPoint" />
          </mxGeometry>
        </mxCell>
        <mxCell id="P6rqCEaD585yuIfaM_o3-24" value="" style="endArrow=none;html=1;rounded=0;entryX=0;entryY=0.5;entryDx=0;entryDy=0;fontSize=14;" edge="1" parent="1" target="P6rqCEaD585yuIfaM_o3-17">
          <mxGeometry width="50" height="50" relative="1" as="geometry">
            <mxPoint x="640" y="933" as="sourcePoint" />
            <mxPoint x="630" y="950" as="targetPoint" />
          </mxGeometry>
        </mxCell>
        <mxCell id="P6rqCEaD585yuIfaM_o3-48" value="" style="edgeStyle=orthogonalEdgeStyle;rounded=0;orthogonalLoop=1;jettySize=auto;html=1;" edge="1" parent="1" source="P6rqCEaD585yuIfaM_o3-25" target="P6rqCEaD585yuIfaM_o3-26">
          <mxGeometry relative="1" as="geometry" />
        </mxCell>
        <mxCell id="P6rqCEaD585yuIfaM_o3-25" value="完成" style="rhombus;whiteSpace=wrap;html=1;fontSize=14;" vertex="1" parent="1">
          <mxGeometry x="540" y="910" width="100" height="45" as="geometry" />
        </mxCell>
        <mxCell id="P6rqCEaD585yuIfaM_o3-26" value="景点预定列表" style="rounded=0;whiteSpace=wrap;html=1;fontSize=14;" vertex="1" parent="1">
          <mxGeometry x="380" y="912.5" width="100" height="40" as="geometry" />
        </mxCell>
        <mxCell id="P6rqCEaD585yuIfaM_o3-27" value="" style="endArrow=none;html=1;rounded=0;entryX=0;entryY=0.5;entryDx=0;entryDy=0;exitX=1;exitY=0.5;exitDx=0;exitDy=0;fontSize=14;" edge="1" parent="1" source="P6rqCEaD585yuIfaM_o3-26">
          <mxGeometry width="50" height="50" relative="1" as="geometry">
            <mxPoint x="470" y="932.36" as="sourcePoint" />
            <mxPoint x="540" y="932.36" as="targetPoint" />
          </mxGeometry>
        </mxCell>
        <mxCell id="P6rqCEaD585yuIfaM_o3-30" value="" style="endArrow=none;html=1;rounded=0;entryX=0;entryY=0.5;entryDx=0;entryDy=0;fontSize=14;" edge="1" parent="1" target="P6rqCEaD585yuIfaM_o3-22">
          <mxGeometry width="50" height="50" relative="1" as="geometry">
            <mxPoint x="290" y="840" as="sourcePoint" />
            <mxPoint x="490" y="1090" as="targetPoint" />
          </mxGeometry>
        </mxCell>
        <mxCell id="P6rqCEaD585yuIfaM_o3-31" value="决定" style="rhombus;whiteSpace=wrap;html=1;fontSize=14;" vertex="1" parent="1">
          <mxGeometry x="200" y="817.5" width="100" height="45" as="geometry" />
        </mxCell>
        <mxCell id="P6rqCEaD585yuIfaM_o3-32" value="" style="endArrow=none;html=1;rounded=0;entryX=0.5;entryY=1;entryDx=0;entryDy=0;fontSize=14;" edge="1" parent="1">
          <mxGeometry width="50" height="50" relative="1" as="geometry">
            <mxPoint x="99.58000000000001" y="907.5" as="sourcePoint" />
            <mxPoint x="99.58000000000001" y="860" as="targetPoint" />
          </mxGeometry>
        </mxCell>
        <mxCell id="P6rqCEaD585yuIfaM_o3-33" value="使用" style="rhombus;whiteSpace=wrap;html=1;fontSize=14;" vertex="1" parent="1">
          <mxGeometry x="50" y="900" width="100" height="45" as="geometry" />
        </mxCell>
        <mxCell id="P6rqCEaD585yuIfaM_o3-34" value="平台" style="rounded=0;whiteSpace=wrap;html=1;fontSize=14;" vertex="1" parent="1">
          <mxGeometry x="50" y="1010" width="100" height="40" as="geometry" />
        </mxCell>
        <mxCell id="P6rqCEaD585yuIfaM_o3-35" value="" style="endArrow=none;html=1;rounded=0;exitX=0.5;exitY=0;exitDx=0;exitDy=0;fontSize=14;" edge="1" parent="1" source="P6rqCEaD585yuIfaM_o3-34">
          <mxGeometry width="50" height="50" relative="1" as="geometry">
            <mxPoint x="99.58000000000001" y="995" as="sourcePoint" />
            <mxPoint x="100.08000000000001" y="945" as="targetPoint" />
          </mxGeometry>
        </mxCell>
        <mxCell id="P6rqCEaD585yuIfaM_o3-36" value="" style="endArrow=none;html=1;rounded=0;fontSize=14;" edge="1" parent="1">
          <mxGeometry width="50" height="50" relative="1" as="geometry">
            <mxPoint x="150" y="840" as="sourcePoint" />
            <mxPoint x="200" y="840" as="targetPoint" />
          </mxGeometry>
        </mxCell>
        <mxCell id="P6rqCEaD585yuIfaM_o3-37" value="旅游" style="rounded=0;whiteSpace=wrap;html=1;fontSize=14;" vertex="1" parent="1">
          <mxGeometry x="50" y="820" width="100" height="40" as="geometry" />
        </mxCell>
        <mxCell id="P6rqCEaD585yuIfaM_o3-38" value="" style="endArrow=none;html=1;rounded=0;fontSize=14;" edge="1" parent="1">
          <mxGeometry width="50" height="50" relative="1" as="geometry">
            <mxPoint x="10" y="840" as="sourcePoint" />
            <mxPoint x="50" y="840" as="targetPoint" />
          </mxGeometry>
        </mxCell>
        <mxCell id="P6rqCEaD585yuIfaM_o3-39" value="对接" style="rhombus;whiteSpace=wrap;html=1;fontSize=14;" vertex="1" parent="1">
          <mxGeometry x="-90" y="817.5" width="100" height="45" as="geometry" />
        </mxCell>
        <mxCell id="P6rqCEaD585yuIfaM_o3-40" value="" style="endArrow=none;html=1;rounded=0;fontSize=14;" edge="1" parent="1">
          <mxGeometry width="50" height="50" relative="1" as="geometry">
            <mxPoint x="-40" y="920" as="sourcePoint" />
            <mxPoint x="-40" y="862.5" as="targetPoint" />
          </mxGeometry>
        </mxCell>
        <mxCell id="P6rqCEaD585yuIfaM_o3-41" value="旅游管理系统" style="rounded=0;whiteSpace=wrap;html=1;fontSize=14;" vertex="1" parent="1">
          <mxGeometry x="-90" y="915" width="100" height="40" as="geometry" />
        </mxCell>
        <mxCell id="P6rqCEaD585yuIfaM_o3-42" value="l" style="text;html=1;align=center;verticalAlign=middle;resizable=0;points=[];autosize=1;strokeColor=none;fillColor=none;" vertex="1" parent="1">
          <mxGeometry x="669" y="1106" width="21" height="26" as="geometry" />
        </mxCell>
        <mxCell id="P6rqCEaD585yuIfaM_o3-43" value="m" style="text;html=1;align=center;verticalAlign=middle;resizable=0;points=[];autosize=1;strokeColor=none;fillColor=none;" vertex="1" parent="1">
          <mxGeometry x="761" y="1071" width="28" height="26" as="geometry" />
        </mxCell>
        <mxCell id="P6rqCEaD585yuIfaM_o3-44" value="l" style="text;html=1;align=center;verticalAlign=middle;resizable=0;points=[];autosize=1;strokeColor=none;fillColor=none;" vertex="1" parent="1">
          <mxGeometry x="766" y="960" width="21" height="26" as="geometry" />
        </mxCell>
        <mxCell id="P6rqCEaD585yuIfaM_o3-45" value="n" style="text;html=1;align=center;verticalAlign=middle;resizable=0;points=[];autosize=1;strokeColor=none;fillColor=none;" vertex="1" parent="1">
          <mxGeometry x="764" y="871" width="25" height="26" as="geometry" />
        </mxCell>
        <mxCell id="P6rqCEaD585yuIfaM_o3-46" value="n" style="text;html=1;align=center;verticalAlign=middle;resizable=0;points=[];autosize=1;strokeColor=none;fillColor=none;" vertex="1" parent="1">
          <mxGeometry x="674" y="822" width="25" height="26" as="geometry" />
        </mxCell>
        <mxCell id="P6rqCEaD585yuIfaM_o3-47" value="l" style="text;html=1;align=center;verticalAlign=middle;resizable=0;points=[];autosize=1;strokeColor=none;fillColor=none;" vertex="1" parent="1">
          <mxGeometry x="664" y="906" width="21" height="26" as="geometry" />
        </mxCell>
        <mxCell id="P6rqCEaD585yuIfaM_o3-49" value="l" style="text;html=1;align=center;verticalAlign=middle;resizable=0;points=[];autosize=1;strokeColor=none;fillColor=none;" vertex="1" parent="1">
          <mxGeometry x="508" y="916" width="21" height="26" as="geometry" />
        </mxCell>
        <mxCell id="P6rqCEaD585yuIfaM_o3-50" value="l" style="text;html=1;align=center;verticalAlign=middle;resizable=0;points=[];autosize=1;strokeColor=none;fillColor=none;" vertex="1" parent="1">
          <mxGeometry x="502" y="818" width="21" height="26" as="geometry" />
        </mxCell>
        <mxCell id="P6rqCEaD585yuIfaM_o3-52" value="n" style="text;html=1;align=center;verticalAlign=middle;resizable=0;points=[];autosize=1;strokeColor=none;fillColor=none;" vertex="1" parent="1">
          <mxGeometry x="315" y="814" width="25" height="26" as="geometry" />
        </mxCell>
        <mxCell id="P6rqCEaD585yuIfaM_o3-53" value="l" style="text;html=1;align=center;verticalAlign=middle;resizable=0;points=[];autosize=1;strokeColor=none;fillColor=none;" vertex="1" parent="1">
          <mxGeometry x="166" y="818" width="21" height="26" as="geometry" />
        </mxCell>
        <mxCell id="P6rqCEaD585yuIfaM_o3-55" value="l" style="text;html=1;align=center;verticalAlign=middle;resizable=0;points=[];autosize=1;strokeColor=none;fillColor=none;" vertex="1" parent="1">
          <mxGeometry x="12" y="816" width="21" height="26" as="geometry" />
        </mxCell>
        <mxCell id="P6rqCEaD585yuIfaM_o3-56" value="l" style="text;html=1;align=center;verticalAlign=middle;resizable=0;points=[];autosize=1;strokeColor=none;fillColor=none;" vertex="1" parent="1">
          <mxGeometry x="-60" y="871" width="21" height="26" as="geometry" />
        </mxCell>
        <mxCell id="P6rqCEaD585yuIfaM_o3-58" value="n" style="text;html=1;align=center;verticalAlign=middle;resizable=0;points=[];autosize=1;strokeColor=none;fillColor=none;" vertex="1" parent="1">
          <mxGeometry x="105" y="867" width="25" height="26" as="geometry" />
        </mxCell>
        <mxCell id="P6rqCEaD585yuIfaM_o3-59" value="l" style="text;html=1;align=center;verticalAlign=middle;resizable=0;points=[];autosize=1;strokeColor=none;fillColor=none;" vertex="1" parent="1">
          <mxGeometry x="99" y="965" width="21" height="26" as="geometry" />
        </mxCell>
      </root>
    </mxGraphModel>
  </diagram>
</mxfile>
